<svg xmlns="http://www.w3.org/2000/svg" viewBox="0 0 300 450" width="300" height="450">
  <rect width="300" height="450" fill="#5c3a21"/>

    <!-- sigil: 9 small pentacles glyphs, one per pip -->
  <path d="M 114 77 L 105 59 L 123 59 Z" fill="none" stroke="#9aa66b" stroke-width="2.5" stroke-linejoin="round"/>
  <line x1="105" y1="68" x2="123" y2="68" stroke="#9aa66b" stroke-width="2.5"/>
  <path d="M 150 77 L 141 59 L 159 59 Z" fill="none" stroke="#9aa66b" stroke-width="2.5" stroke-linejoin="round"/>
  <line x1="141" y1="68" x2="159" y2="68" stroke="#9aa66b" stroke-width="2.5"/>
  <path d="M 186 77 L 177 59 L 195 59 Z" fill="none" stroke="#9aa66b" stroke-width="2.5" stroke-linejoin="round"/>
  <line x1="177" y1="68" x2="195" y2="68" stroke="#9aa66b" stroke-width="2.5"/>
  <path d="M 114 105 L 105 87 L 123 87 Z" fill="none" stroke="#9aa66b" stroke-width="2.5" stroke-linejoin="round"/>
  <line x1="105" y1="96" x2="123" y2="96" stroke="#9aa66b" stroke-width="2.5"/>
  <path d="M 150 105 L 141 87 L 159 87 Z" fill="none" stroke="#9aa66b" stroke-width="2.5" stroke-linejoin="round"/>
  <line x1="141" y1="96" x2="159" y2="96" stroke="#9aa66b" stroke-width="2.5"/>
  <path d="M 186 105 L 177 87 L 195 87 Z" fill="none" stroke="#9aa66b" stroke-width="2.5" stroke-linejoin="round"/>
  <line x1="177" y1="96" x2="195" y2="96" stroke="#9aa66b" stroke-width="2.5"/>
  <path d="M 114 133 L 105 115 L 123 115 Z" fill="none" stroke="#9aa66b" stroke-width="2.5" stroke-linejoin="round"/>
  <line x1="105" y1="124" x2="123" y2="124" stroke="#9aa66b" stroke-width="2.5"/>
  <path d="M 150 133 L 141 115 L 159 115 Z" fill="none" stroke="#9aa66b" stroke-width="2.5" stroke-linejoin="round"/>
  <line x1="141" y1="124" x2="159" y2="124" stroke="#9aa66b" stroke-width="2.5"/>
  <path d="M 186 133 L 177 115 L 195 115 Z" fill="none" stroke="#9aa66b" stroke-width="2.5" stroke-linejoin="round"/>
  <line x1="177" y1="124" x2="195" y2="124" stroke="#9aa66b" stroke-width="2.5"/>

  <!-- name -->
  <text x="150" y="255" text-anchor="middle" font-family="Iowan Old Style, Palatino, Georgia, serif" font-size="50" font-weight="700" fill="#9aa66b">Nine of</text>
  <text x="150" y="313" text-anchor="middle" font-family="Iowan Old Style, Palatino, Georgia, serif" font-size="50" font-weight="700" fill="#9aa66b">Pentacles</text>

  <!-- rank index -->
  <text x="26" y="424" font-family="Iowan Old Style, Palatino, Georgia, serif" font-size="15" fill="#9aa66b" opacity="0.7">9</text>
</svg>
